{"title":"Despicable Me CAM 2010 MP4 FEEL-FREE","uid":5690937,"size":786519754,"categoryP":"video","categoryS":"movies","magnet":"?xt=urn:btih:6298fab705462e822d28ebd4d8d94a94e561618c&amp;dn=Despicable+Me+CAM+2010+MP4+FEEL-FREE&amp;tr=udp%3A%2F%2Ftracker.openbittorrent.com%3A80&amp;tr=udp%3A%2F%2Fopen.demonii.com%3A1337&amp;tr=udp%3A%2F%2Ftracker.coppersurfer.tk%3A6969&amp;tr=udp%3A%2F%2Fexodus.desync.com%3A6969","seeders":2,"leechers":0,"uploader":"hiest","files":8,"time":1279089791,"description":"Genre:Animation | Comedy | Family \nLanguage:English\nIMDb:http://www.imdb.com/title/tt1323594/\nSource:TA/Slugger Thanks!!!\nEncoder: Tony2\n.............................................\nGeneral\nComplete name : Despicable Me CAM 2010 MP4 FEEL-FREE\nFormat : MPEG-4\nFormat profile : Base Media\nCodec ID : isom\nFile size : 749 MiB\nDuration : 1h 18mn\nOverall bit rate : 1 331 Kbps\n...............................................\nVideo\nID : 1\nFormat : MPEG-4 Visual\nFormat profile : Simple@L1\nFormat settings, BVOP : No\nFormat settings, QPel : No\nFormat settings, GMC : No warppoints\nFormat settings, Matrix : Default (H.263)\nCodec ID : 20\nDuration : 1h 18mn\nBit rate mode : Variable\nBit rate : 1 198 Kbps\nWidth : 720 pixels\nHeight : 304 pixels\nDisplay aspect ratio : 2.35:1\nFrame rate mode : Constant\nFrame rate : 29.970 fps\nResolution : 24 bits\nColorimetry : 4:2:0\nScan type : Progressive\nBits/(Pixel*Frame) : 0.183\nStream size : 674 MiB (90%)\n................................................\n\nAudio\nID : 2\nFormat : AAC\nFormat/Info : Advanced Audio Codec\nFormat version : Version 4\nFormat profile : LC\nFormat settings, SBR : No\nCodec ID : 40\nDuration : 1h 18mn\nBit rate mode : Variable\nBit rate : 128 Kbps\nChannel(s) : 2 channels\nChannel positions : L R\nSampling rate : 48.0 KHz\nResolution : 16 bits\nStream size : 72.0 MiB (10%)\n.................................................\nPlot:\nA trio of orphan girls cause the normally deplorable Gru to rethink his plan to steal the moon\n...................................................","torrent":{"xt":"urn:btih:6298fab705462e822d28ebd4d8d94a94e561618c","amp;dn":"Despicable+Me+CAM+2010+MP4+FEEL-FREE","amp;tr":["udp%3A%2F%2Ftracker.openbittorrent.com%3A80","udp%3A%2F%2Fopen.demonii.com%3A1337","udp%3A%2F%2Ftracker.coppersurfer.tk%3A6969","udp%3A%2F%2Fexodus.desync.com%3A6969"],"infoHash":"6298fab705462e822d28ebd4d8d94a94e561618c","infoHashBuffer":{"type":"Buffer","data":[98,152,250,183,5,70,46,130,45,40,235,212,216,217,74,148,229,97,97,140]},"announce":[],"urlList":[]}}